<?xml version="1.0" encoding="utf-8"?>
<svg version="1.1" xmlns:xlink="http://www.w3.org/1999/xlink" width="36px" height="25px" xmlns="http://www.w3.org/2000/svg">
  <g transform="matrix(1 0 0 1 -970 -503 )">
    <path d="M 17.349609375 18.058268229166668  C 17.783203125 17.597113715277775  18 17.01931423611111  18 16.324869791666668  C 18 15.630425347222221  17.947265625 14.99294704861111  17.841796875 14.412434895833332  C 17.736328125 13.831922743055552  17.5634765625 13.273111979166668  17.3232421875 12.736002604166668  C 17.0830078125 12.198893229166666  16.728515625 11.775716145833334  16.259765625 11.466471354166666  C 15.791015625000004 11.1572265625  15.222656250000002 11.002604166666666  14.5546875 11.002604166666666  C 14.484375000000002 11.046006944444445  14.308593750000002 11.143663194444445  14.02734375 11.295572916666666  C 13.746093750000002 11.447482638888888  13.526367187500002 11.564127604166666  13.3681640625 11.6455078125  C 13.2099609375 11.726888020833334  13.001953125000002 11.821831597222221  12.744140625 11.930338541666666  C 12.486328125 12.03884548611111  12.234375 12.117513020833334  11.98828125 12.166341145833334  C 11.7421875 12.215169270833334  11.49609375 12.239583333333334  11.25 12.239583333333334  C 11.00390625 12.239583333333334  10.7578125 12.215169270833334  10.51171875 12.166341145833334  C 10.265625 12.117513020833334  10.013671875000002 12.03884548611111  9.755859375 11.930338541666666  C 9.498046875 11.821831597222221  9.2900390625 11.726888020833334  9.1318359375 11.6455078125  C 8.9736328125 11.564127604166666  8.75390625 11.447482638888888  8.47265625 11.295572916666666  C 8.19140625 11.143663194444445  8.015625 11.046006944444445  7.9453125 11.002604166666666  C 7.27734375 11.002604166666666  6.708984375 11.1572265625  6.240234375 11.466471354166666  C 5.771484375000001 11.775716145833334  5.4169921875 12.198893229166666  5.1767578125 12.736002604166668  C 4.936523437500001 13.273111979166668  4.763671875 13.831922743055552  4.658203125 14.412434895833332  C 4.552734375 14.99294704861111  4.5 15.630425347222221  4.5 16.324869791666668  C 4.5 17.01931423611111  4.716796875000001 17.597113715277775  5.150390625 18.058268229166668  C 5.583984375 18.519422743055554  6.1171875 18.75  6.75 18.75  L 15.75 18.75  C 16.3828125 18.75  16.916015625 18.519422743055554  17.349609375 18.058268229166668  Z M 14.0712890625 10.4736328125  C 14.850585937500004 9.752061631944443  15.240234375000002 8.881293402777777  15.240234375 7.861328125  C 15.240234375000002 6.841362847222221  14.850585937500004 5.970594618055555  14.0712890625 5.2490234375  C 13.291992187500002 4.527452256944442  12.351562500000002 4.166666666666666  11.25 4.166666666666666  C 10.1484375 4.166666666666666  9.2080078125 4.527452256944442  8.4287109375 5.2490234375  C 7.6494140625 5.970594618055555  7.259765625 6.841362847222221  7.259765625 7.861328125  C 7.259765625 8.881293402777777  7.6494140625 9.752061631944443  8.4287109375 10.4736328125  C 9.2080078125 11.195203993055555  10.1484375 11.555989583333334  11.25 11.555989583333334  C 12.351562500000002 11.555989583333334  13.291992187500002 11.195203993055555  14.0712890625 10.4736328125  Z M 31.341796875 16.520182291666668  C 31.447265625 16.422526041666668  31.5 16.297743055555554  31.5 16.145833333333332  L 31.5 15.104166666666668  C 31.5 14.952256944444443  31.447265625 14.827473958333332  31.341796875 14.729817708333332  C 31.236328125 14.632161458333332  31.101562500000004 14.583333333333332  30.9375 14.583333333333332  L 20.8125 14.583333333333332  C 20.6484375 14.583333333333332  20.513671875 14.632161458333332  20.408203125 14.729817708333332  C 20.302734375 14.827473958333332  20.25 14.952256944444443  20.25 15.104166666666668  L 20.25 16.145833333333332  C 20.25 16.297743055555554  20.302734375 16.422526041666668  20.408203125 16.520182291666668  C 20.513671875 16.617838541666668  20.6484375 16.666666666666668  20.8125 16.666666666666668  L 30.9375 16.666666666666668  C 31.101562500000004 16.666666666666668  31.236328125 16.617838541666668  31.341796875 16.520182291666668  Z M 31.3154296875 12.3291015625  C 31.4384765625 12.215169270833334  31.5 12.076822916666666  31.5 11.9140625  L 31.5 11.002604166666666  C 31.5 10.83984375  31.4384765625 10.701497395833334  31.3154296875 10.587565104166666  C 31.1923828125 10.4736328125  31.04296875 10.416666666666666  30.8671875 10.416666666666666  L 20.8828125 10.416666666666666  C 20.70703125 10.416666666666666  20.5576171875 10.4736328125  20.4345703125 10.587565104166666  C 20.3115234375 10.701497395833334  20.25 10.83984375  20.25 11.002604166666666  L 20.25 11.9140625  C 20.25 12.076822916666666  20.3115234375 12.215169270833334  20.4345703125 12.3291015625  C 20.5576171875 12.443033854166666  20.70703125 12.5  20.8828125 12.5  L 30.8671875 12.5  C 31.04296875 12.5  31.1923828125 12.443033854166666  31.3154296875 12.3291015625  Z M 31.341796875 8.186848958333334  C 31.447265625 8.089192708333334  31.5 7.964409722222221  31.5 7.8125  L 31.5 6.770833333333334  C 31.5 6.618923611111108  31.447265625 6.494140625  31.341796875 6.396484375  C 31.236328125 6.298828125  31.101562500000004 6.25  30.9375 6.25  L 20.8125 6.25  C 20.6484375 6.25  20.513671875 6.298828125  20.408203125 6.396484375  C 20.302734375 6.494140625  20.25 6.618923611111108  20.25 6.770833333333334  L 20.25 7.8125  C 20.25 7.964409722222221  20.302734375 8.089192708333334  20.408203125 8.186848958333334  C 20.513671875 8.284505208333334  20.6484375 8.333333333333334  20.8125 8.333333333333334  L 30.9375 8.333333333333334  C 31.101562500000004 8.333333333333334  31.236328125 8.284505208333334  31.341796875 8.186848958333334  Z M 35.173828125 0.7649739583333343  C 35.724609375 1.274956597222221  36 1.8880208333333344  36 2.6041666666666656  L 36 22.395833333333336  C 36 23.111979166666664  35.724609375 23.72504340277778  35.173828125 24.235026041666664  C 34.623046875 24.745008680555554  33.9609375 25  33.1875 25  L 27 25  L 27 23.4375  C 27 23.28559027777778  26.947265625 23.160807291666664  26.841796875 23.063151041666664  C 26.736328125 22.965494791666664  26.601562500000004 22.916666666666664  26.4375 22.916666666666664  L 25.3125 22.916666666666664  C 25.1484375 22.916666666666664  25.013671875 22.965494791666664  24.908203125 23.063151041666664  C 24.802734375 23.160807291666664  24.75 23.28559027777778  24.75 23.4375  L 24.75 25  L 11.25 25  L 11.25 23.4375  C 11.25 23.28559027777778  11.197265625 23.160807291666664  11.091796875 23.063151041666664  C 10.986328125 22.965494791666664  10.8515625 22.916666666666664  10.6875 22.916666666666664  L 9.5625 22.916666666666664  C 9.398437500000002 22.916666666666664  9.263671875 22.965494791666664  9.158203125 23.063151041666664  C 9.052734375 23.160807291666664  9 23.28559027777778  9 23.4375  L 9 25  L 2.8125 25  C 2.0390625 25  1.3769531250000002 24.745008680555554  0.826171875 24.235026041666664  C 0.275390625 23.72504340277778  0 23.111979166666664  0 22.395833333333336  L 0 2.6041666666666656  C 0 1.8880208333333344  0.275390625 1.274956597222221  0.826171875 0.7649739583333343  C 1.3769531250000002 0.254991319444442  2.0390625 0  2.8125 0  L 33.1875 0  C 33.9609375 0  34.623046875 0.254991319444442  35.173828125 0.7649739583333343  Z " fill-rule="nonzero" fill="#893b12" stroke="none" transform="matrix(1 0 0 1 970 503 )" />
  </g>
</svg>