<?xml version="1.0" encoding="utf-8"?>
<svg version="1.1" xmlns:xlink="http://www.w3.org/1999/xlink" width="32px" height="31px" xmlns="http://www.w3.org/2000/svg">
  <g transform="matrix(1 0 0 1 -199 -259 )">
    <path d="M 28.03136136849608 0.3095577746077026  C 29.491090520313612 -0.16214931050880366  30.616298408172966 -0.07370423204945808  31.406985032074125 0.5748930099857359  C 32.0760275599905 1.3414170233000435  32.1672606319791 2.432239657631955  31.680684248039913 3.8473609129814568  C 31.194107864100737 5.262482168330955  30.373010216203376 6.530194959581547  29.217391304347824 7.650499286733237  L 25.545260156806844 11.210413694721826  L 29.19458303635068 26.599857346647646  C 29.27061059634118 26.87993342843557  29.17937752435258 27.123157394198763  28.92088382038489 27.32952924393723  L 26.001425516749823 29.452211126961483  C 25.89498693276313 29.54065620542083  25.750534568781184 29.5848787446505  25.568068424803993 29.5848787446505  C 25.507246376811597 29.5848787446505  25.454027084818247 29.577508321445556  25.408410548823948 29.562767475035663  C 25.18032786885246 29.51854493580599  25.020669992872417 29.40061816452687  24.92943692088382 29.208987161198287  L 18.565930149679257 17.97646219686163  L 12.658588738417677 23.70328102710414  L 13.867426942266572 27.992867332382314  C 13.943454502257069 28.243461721350453  13.882632454264673 28.47194484070376  13.68496079828938 28.678316690442227  L 11.495367070563079 30.800998573466476  C 11.358517462580185 30.933666191155492  11.183654074602044 31  10.970776906628652 31  L 10.925160370634355 31  C 10.697077690662866 30.97051830718022  10.514611546685673 30.87470280551593  10.377761938702779 30.712553495007132  L 6.066999287241625 25.140513552068473  L 0.31931575196008555 20.961483594864482  C 0.1520551199809931 20.858297669995242  0.053219291993347594 20.688777936281497  0.022808267997148968 20.45292439372325  C 0.007602755999049654 20.26129339039467  0.07602755999049655 20.077032810271042  0.22808267997148968 19.900142653352354  L 2.4176764076977904 17.75534950071327  C 2.5545260156806844 17.622681883024253  2.7293894036588267 17.55634807417974  2.9422665716322167 17.55634807417974  C 3.0334996436208126 17.55634807417974  3.09432169161321 17.563718497384688  3.1247327156094085 17.57845934379458  L 7.5495367070563075 18.750356633380882  L 13.45687811831789 13.023537803138373  L 1.8702779757662154 6.8544935805991445  C 1.657400807792825 6.736566809320017  1.5281539558089807 6.559676652401329  1.4825374198146828 6.323823109843081  C 1.4521263958184842 6.08796956728483  1.5205511998099313 5.888968140751308  1.6878118317890236 5.726818830242511  L 4.607270135424091 2.896576319543511  C 4.820147303397482 2.7049453162149284  5.048229983368971 2.645981930575365  5.2915181753385605 2.719686162624823  L 20.459016393442624 6.235378031383739  L 24.10833927298646 2.697574893009985  C 25.263958184842007 1.5772705658582948  26.571632216678545 0.781264859724202  28.03136136849608 0.3095577746077026  Z " fill-rule="nonzero" fill="#ffffff" stroke="none" fill-opacity="0.996078431372549" transform="matrix(1 0 0 1 199 259 )" />
  </g>
</svg>