<?xml version="1.0" encoding="utf-8"?>
<svg version="1.1" xmlns:xlink="http://www.w3.org/1999/xlink" width="25px" height="32px" xmlns="http://www.w3.org/2000/svg">
  <g transform="matrix(1 0 0 1 -1132 -250 )">
    <path d="M 2.265625 0  L 22.734375 0  C 23.03385416666667 0  23.3203125 0.06345009914078048  23.59375 0.19035029742234144  C 24.0234375 0.3736505838290327  24.365234375 0.6627010354703664  24.619140625 1.0575016523463319  C 24.873046875 1.4523022692222938  25 1.8894029521921105  25 2.368803701255782  L 25 29.631196298744218  C 25 30.11059704780789  24.873046875 30.547697730777703  24.619140625 30.942498347653668  C 24.365234375 31.337298964529634  24.0234375 31.62634941617096  23.59375 31.80964970257766  C 23.346354166666668 31.922449878827933  23.059895833333336 31.978849966953074  22.734375 31.978849966953074  C 22.109375 31.978849966953074  21.56901041666667 31.75324961445252  21.11328125 31.302048909451422  L 12.5 22.334434897554527  L 3.8867187499999996 31.302048909451422  C 3.41796875 31.767349636483807  2.877604166666667 32  2.265625 32  C 1.9661458333333333 32  1.6796875 31.93654990085922  1.40625 31.80964970257766  C 0.9765625 31.62634941617096  0.634765625 31.337298964529634  0.380859375 30.942498347653668  C 0.126953125 30.547697730777703  0 30.11059704780789  0 29.631196298744218  L 0 2.368803701255782  C 0 1.8894029521921105  0.126953125 1.4523022692222938  0.380859375 1.0575016523463319  C 0.634765625 0.6627010354703664  0.9765625 0.3736505838290327  1.40625 0.19035029742234144  C 1.6796875 0.06345009914078048  1.9661458333333333 0  2.265625 0  Z " fill-rule="nonzero" fill="#978061" stroke="none" transform="matrix(1 0 0 1 1132 250 )" />
  </g>
</svg>