<?xml version="1.0" encoding="utf-8"?>
<svg version="1.1" xmlns:xlink="http://www.w3.org/1999/xlink" width="33px" height="31px" xmlns="http://www.w3.org/2000/svg">
  <g transform="matrix(1 0 0 1 -580 -268 )">
    <path d="M 31.316326530612248 6.195963541666665  C 31.818127250900364 6.397786458333335  32.20768307322929 6.68706597222222  32.48499399759904 7.063802083333335  C 33.01320528211284 7.830729166666665  33.132052821128454 8.698567708333334  32.84153661464586 9.667317708333334  L 27.39435774309724 27.952473958333336  C 27.143457382953187 28.813585069444446  26.638355342136855 29.536783854166664  25.87905162064826 30.1220703125  C 25.119747899159666 30.707356770833336  24.3109243697479 31  23.452581032412965 31  L 5.169867947178871 31  C 4.153061224489796 31  3.1725690276110448 30.640082465277782  2.228391356542617 29.920247395833336  C 1.28421368547419 29.20041232638889  0.6272509003601442 28.315755208333336  0.2575030012004802 27.266276041666664  C -0.05942376950780312 26.364800347222218  -0.07262905162064827 25.510416666666664  0.2178871548619448 24.703125  C 0.2178871548619448 24.649305555555554  0.23769507803121248 24.467664930555554  0.2773109243697479 24.158203125  C 0.3169267707082833 23.848741319444443  0.3433373349339736 23.59982638888889  0.3565426170468188 23.411458333333336  C 0.3697478991596639 23.303819444444446  0.34993997599039617 23.1591796875  0.2971188475390156 22.9775390625  C 0.24429771908763506 22.7958984375  0.22448979591836737 22.664713541666668  0.23769507803121248 22.583984375  C 0.26410564225690275 22.43598090277778  0.3169267707082833 22.294704861111107  0.39615846338535415 22.16015625  C 0.47539015606242496 22.025607638888886  0.5843337334933973 21.867513020833332  0.7229891956782714 21.685872395833332  C 0.8616446578631453 21.504231770833332  0.9705882352941176 21.34613715277778  1.0498199279711884 21.211588541666668  C 1.3535414165666269 20.70030381944444  1.6506602641056425 20.084743923611107  1.9411764705882353 19.364908854166668  C 2.2316926770708285 18.64507378472222  2.4297719087635055 18.029513888888886  2.5354141656662663 17.518229166666668  C 2.5750300120048015 17.383680555555554  2.5783313325330135 17.181857638888886  2.5453181272509005 16.912760416666668  C 2.512304921968788 16.643663194444446  2.5090036014405763 16.455295138888886  2.5354141656662663 16.34765625  C 2.5750300120048015 16.19965277777778  2.687274909963986 16.01128472222222  2.8721488595438176 15.78255208333333  C 3.0570228091236493 15.553819444444446  3.1692677070828332 15.399088541666666  3.2088835534213684 15.318359375  C 3.4861944777911167 14.833984375  3.7635054021608645 14.21506076388889  4.040816326530612 13.461588541666666  C 4.31812725090036 12.708116319444443  4.483193277310925 12.102647569444443  4.536014405762305 11.645182291666666  C 4.54921968787515 11.524088541666666  4.532713085234094 11.30881076388889  4.486494597839136 10.999348958333334  C 4.440276110444178 10.689887152777777  4.44357743097239 10.50151909722222  4.49639855942377 10.434244791666666  C 4.54921968787515 10.25933159722222  4.694477791116447 10.054144965277773  4.932172869147659 9.818684895833334  C 5.169867947178871 9.58322482638889  5.315126050420169 9.43185763888889  5.367947178871549 9.364583333333334  C 5.618847539015607 9.014756944444443  5.899459783913566 8.4462890625  6.209783913565426 7.6591796875  C 6.520108043217287 6.8720703125  6.701680672268909 6.222873263888888  6.754501800720288 5.711588541666665  C 6.767707082833134 5.603949652777773  6.747899159663866 5.432400173611108  6.695078031212486 5.196940104166665  C 6.642256902761105 4.96148003472222  6.62905162064826 4.783203125  6.65546218487395 4.662109375  C 6.68187274909964 4.554470486111108  6.741296518607444 4.433376736111108  6.833733493397359 4.298828125  C 6.9261704681872756 4.164279513888888  7.045018007202882 4.009548611111108  7.190276110444177 3.8346354166666656  C 7.335534213685475 3.6597222222222197  7.447779111644658 3.518446180555554  7.527010804321729 3.4108072916666656  C 7.632653061224491 3.2493489583333344  7.741596638655463 3.0441623263888884  7.853841536614646 2.7952473958333344  C 7.96608643457383 2.5463324652777737  8.065126050420169 2.3108723958333344  8.150960384153661 2.0888671875  C 8.236794717887156 1.8668619791666656  8.342436974789917 1.6246744791666656  8.467887154861945 1.3623046875  C 8.593337334933974 1.0999348958333344  8.722088835534214 0.884657118055554  8.854141656662664 0.7164713541666655  C 8.986194477791118 0.5482855902777736  9.161164465786316 0.39019097222221955  9.379051620648259 0.2421875  C 9.596938775510205 0.09418402777777357  9.834633853541417 0.016818576388888506  10.092136854741897 0.01009114583333448  C 10.349639855942378 0.0033637152777735713  10.66326530612245 0.04036458333333448  11.033013205282112 0.12109375  L 11.013205282112846 0.181640625  C 11.51500600240096 0.060546875  11.851740696278512 0  12.023409363745499 0  L 27.097238895558224 0  C 28.07442977190877 0  28.82713085234094 0.37673611111110805  29.35534213685474 1.1302083333333344  C 29.88355342136855 1.883680555555554  30.002400960384158 2.7582465277777737  29.71188475390156 3.75390625  L 24.284513805522206 22.0390625  C 23.80912364945978 23.640190972222218  23.337034813925573 24.6728515625  22.86824729891957 25.137044270833336  C 22.39945978391357 25.601236979166664  21.551020408163264 25.833333333333336  20.322929171668665 25.833333333333336  L 3.10984393757503 25.833333333333336  C 2.7533013205282115 25.833333333333336  2.5024009603841537 25.934244791666664  2.357142857142857 26.136067708333336  C 2.2118847539015607 26.35134548611111  2.205282112845138 26.640625  2.3373349339735894 27.00390625  C 2.6542617046818724 27.945746527777782  3.6050420168067228 28.416666666666664  5.189675870348139 28  L 23.472388955582232 28  C 23.855342136854745 28.416666666666664  24.225090036014407 28.312391493055554  24.581632653061227 28.103841145833336  C 24.938175270108044 27.89529079861111  25.169267707082835 27.616102430555554  25.274909963985593 27.266276041666664  L 31.217286914765907 7.346354166666665  C 31.309723889555826 7.05034722222222  31.342737094837936 6.666883680555554  31.316326530612248 6.195963541666665  Z M 11.825330132052821 5.8125  L 11.4093637454982 7.104166666666665  C 11.356542617046818 7.279079861111108  11.369747899159664 7.430447048611108  11.448979591836734 7.558268229166665  C 11.528211284513805 7.68608940972222  11.66026410564226 7.75  11.845138055222089 8  L 23.888355342136855 8  C 24.060024009603843 7.75  24.228391356542616 7.68608940972222  24.39345738295318 7.558268229166665  C 24.558523409363747 7.430447048611108  24.66746698679472 7.279079861111108  24.7202881152461 7.104166666666665  L 25.13625450180072 5.8125  C 25.189075630252102 5.637586805555554  25.175870348139256 5.486219618055554  25.096638655462183 5.3583984375  C 25.017406962785113 5.230577256944443  24.885354141656666 5.166666666666665  24.70048019207683 5.166666666666665  L 12.657262905162066 5.166666666666665  C 12.485594237695079 5.166666666666665  12.317226890756302 5.230577256944443  12.152160864345738 5.3583984375  C 11.987094837935174 5.486219618055554  11.878151260504204 5.637586805555554  11.825330132052821 5.8125  Z M 10.181272509003602 10.979166666666666  L 9.76530612244898 12.270833333333334  C 9.7124849939976 12.445746527777777  9.725690276110445 12.597113715277777  9.804921968787516 12.724934895833334  C 9.884153661464586 12.85275607638889  10.016206482593036 12.916666666666666  10.20108043217287 13  L 22.244297719087633 13  C 22.415966386554622 12.916666666666666  22.584333733493402 12.85275607638889  22.74939975990396 12.724934895833334  C 22.91446578631453 12.597113715277777  23.0234093637455 12.445746527777777  23.076230492196878 12.270833333333334  L 23.4921968787515 10.979166666666666  C 23.54501800720288 10.80425347222222  23.531812725090035 10.65288628472222  23.452581032412965 10.525065104166666  C 23.373349339735896 10.39724392361111  23.241296518607445 10.333333333333334  23.05642256902761 10.333333333333334  L 11.013205282112846 10.333333333333334  C 10.84153661464586 10.333333333333334  10.673169267707085 10.39724392361111  10.508103241296519 10.525065104166666  C 10.343037214885955 10.65288628472222  10.234093637454983 10.80425347222222  10.181272509003602 10.979166666666666  Z " fill-rule="nonzero" fill="#4b3e30" stroke="none" transform="matrix(1 0 0 1 580 268 )" />
  </g>
</svg>