<?xml version="1.0" encoding="utf-8"?>
<svg version="1.1" xmlns:xlink="http://www.w3.org/1999/xlink" width="25px" height="31px" xmlns="http://www.w3.org/2000/svg">
  <g transform="matrix(1 0 0 1 -973 -253 )">
    <path d="M 22.5 28.070059484467944  L 22.5 3  L 2.5 3  L 2.5 28.070059484467944  L 10.76171875 19.751487111698612  L 12.5 18.009914077990743  L 14.238281250000002 19.751487111698612  L 22.5 28.070059484467944  Z M 2.265625 0  L 22.734375 0  C 23.03385416666667 0  23.3203125 0.06146728354263109  23.59375 0.18440185062789327  C 24.0234375 0.36197400308437544  24.365234375 0.6419916281119175  24.619140625 1.024454725710509  C 24.873046875 1.406917823309097  25 1.830359109936107  25 2.294778585591539  L 25 28.70522141440846  C 25 29.169640890063892  24.873046875 29.5930821766909  24.619140625 29.97554527428949  C 24.365234375 30.358008371888083  24.0234375 30.63802599691562  23.59375 30.815598149372107  C 23.346354166666668 30.92487332011456  23.059895833333336 30.979510905485792  22.734375 30.979510905485792  C 22.109375 30.979510905485792  21.56901041666667 30.76096056400088  21.11328125 30.323859881031066  L 12.5 21.63648380700595  L 3.8867187499999996 30.323859881031066  C 3.41796875 30.77461996034369  2.877604166666667 31  2.265625 31  C 1.9661458333333333 31  1.6796875 30.93853271645737  1.40625 30.815598149372107  C 0.9765625 30.63802599691562  0.634765625 30.358008371888083  0.380859375 29.97554527428949  C 0.126953125 29.5930821766909  0 29.169640890063892  0 28.70522141440846  L 0 2.294778585591539  C 0 1.830359109936107  0.126953125 1.406917823309097  0.380859375 1.024454725710509  C 0.634765625 0.6419916281119175  0.9765625 0.36197400308437544  1.40625 0.18440185062789327  C 1.6796875 0.06146728354263109  1.9661458333333333 0  2.265625 0  Z " fill-rule="nonzero" fill="#ffffff" stroke="none" fill-opacity="0.996078431372549" transform="matrix(1 0 0 1 973 253 )" />
  </g>
</svg>