<?xml version="1.0" encoding="utf-8"?>
<svg version="1.1" xmlns:xlink="http://www.w3.org/1999/xlink" width="22px" height="21px" xmlns="http://www.w3.org/2000/svg">
  <g transform="matrix(1 0 0 1 -716 -55 )">
    <path d="M 13.4921875 12.87890625  C 14.651241987179489 11.772536057692307  15.23076923076923 10.441105769230768  15.23076923076923 8.884615384615385  C 15.23076923076923 7.328124999999998  14.651241987179489 5.99669471153846  13.4921875 4.890324519230769  C 12.333133012820515 3.7839543269230753  10.938301282051283 3.230769230769231  9.307692307692308 3.230769230769231  C 7.677083333333334 3.230769230769231  6.282251602564104 3.7839543269230753  5.123197115384615 4.890324519230769  C 3.9641426282051286 5.99669471153846  3.384615384615385 7.328124999999998  3.384615384615385 8.884615384615385  C 3.384615384615385 10.441105769230768  3.9641426282051286 11.772536057692307  5.123197115384615 12.87890625  C 6.282251602564104 13.98527644230769  7.677083333333334 14.538461538461538  9.307692307692308 14.538461538461538  C 10.938301282051283 14.538461538461538  12.333133012820515 13.98527644230769  13.4921875 12.87890625  Z M 21.51081730769231 18.248798076923077  C 21.836939102564102 18.560096153846157  22 18.938701923076923  22 19.384615384615387  C 22 19.822115384615387  21.832532051282055 20.200721153846157  21.497596153846153 20.520432692307693  C 21.16266025641026 20.84014423076923  20.766025641025642 21  20.30769230769231 21  C 19.83173076923077 21  19.435096153846153 20.84014423076923  19.11778846153846 20.520432692307693  L 14.582932692307692 16.204326923076923  C 13.005208333333334 17.247596153846157  11.246794871794874 17.76923076923077  9.307692307692308 17.76923076923077  C 8.047275641025642 17.76923076923077  6.841947115384615 17.535757211538463  5.69170673076923 17.068810096153847  C 4.541466346153846 16.60186298076923  3.5498798076923075 15.970853365384615  2.7169471153846154 15.17578125  C 1.8840144230769231 14.380709134615385  1.222956730769231 13.434194711538462  0.7337740384615384 12.336237980769232  C 0.24459134615384617 11.23828125  0 10.087740384615383  0 8.884615384615385  C 0 7.6814903846153815  0.24459134615384617 6.530949519230769  0.7337740384615384 5.432992788461538  C 1.222956730769231 4.3350360576923075  1.8840144230769231 3.388521634615386  2.7169471153846154 2.593449519230769  C 3.5498798076923075 1.7983774038461546  4.541466346153846 1.167367788461538  5.69170673076923 0.7004206730769238  C 6.841947115384615 0.23347355769230715  8.047275641025642 0  9.307692307692308 0  C 10.568108974358974 0  11.7734375 0.23347355769230715  12.923677884615385 0.7004206730769238  C 14.07391826923077 1.167367788461538  15.065504807692308 1.7983774038461546  15.8984375 2.593449519230769  C 16.73137019230769 3.388521634615386  17.392427884615383 4.3350360576923075  17.881610576923077 5.432992788461538  C 18.37079326923077 6.530949519230769  18.615384615384617 7.6814903846153815  18.615384615384617 8.884615384615385  C 18.615384615384617 10.735576923076922  18.06891025641026 12.414062499999998  16.97596153846154 13.920072115384615  L 21.51081730769231 18.248798076923077  Z " fill-rule="nonzero" fill="#665238" stroke="none" transform="matrix(1 0 0 1 716 55 )" />
  </g>
</svg>