<?xml version="1.0" encoding="utf-8"?>
<svg version="1.1" xmlns:xlink="http://www.w3.org/1999/xlink" width="25px" height="24px" xmlns="http://www.w3.org/2000/svg">
  <g transform="matrix(1 0 0 1 -182 -207 )">
    <path d="M 21.89950106913756 0.23965763195435041  C 23.03991446899501 -0.12553495007133186  23.91898313138513 -0.05706134094151594  24.53670705630791 0.44507845934379553  C 25.059396531242577 1.0385164051355176  25.13067236873367 1.8830242510699007  24.750534568781184 2.978601997146934  C 24.3703967688287 4.074179743223965  23.728914231408886 5.055634807417972  22.82608695652174 5.922967189728958  L 19.957234497505347 8.679029957203994  L 22.808267997148967 20.593437945791727  C 22.867664528391547 20.810271041369475  22.796388690900454 20.998573466476465  22.594440484675697 21.158345221112697  L 20.3136136849608 22.801711840228243  C 20.230458541221193 22.87018544935806  20.1176051318603 22.904422253922966  19.97505345687812 22.904422253922966  C 19.927536231884062 22.904422253922966  19.885958660014253 22.898716119828816  19.85032074126871 22.887303851640514  C 19.672131147540984 22.853067047075605  19.547398431931576 22.761768901569187  19.476122594440483 22.613409415121254  L 14.50463292943692 13.917261055634809  L 9.88952245188881 18.3509272467903  L 10.83392729864576 21.671897289586305  C 10.893323829888335 21.865905848787445  10.845806604894277 22.042796005706137  10.691375623663578 22.20256776034237  L 8.980755523877406 23.84593437945792  C 8.87384176764077 23.94864479315264  8.737229745782846 24  8.570919458303635 24  L 8.53528153955809 24  C 8.357091945830364 23.977175463623396  8.214540270848183 23.902995720399428  8.107626514611546 23.7774607703281  L 4.73984319315752 19.46362339514979  L 0.24946543121881684 16.22824536376605  C 0.11879306248515087 16.14835948644793  0.04157757186980281 16.01711840228245  0.01781895937277263 15.834522111269614  C 0.005939653124257542 15.68616262482168  0.059396531242575434 15.543509272467904  0.1781895937277263 15.406562054208274  L 1.8888096935138987 13.746077032810271  C 1.9957234497505347 13.64336661911555  2.1323354716084584 13.592011412268187  2.298645759087669 13.592011412268187  C 2.36992159657876 13.592011412268187  2.41743882157282 13.59771754636234  2.4411974340698506 13.609129814550641  L 5.89807555238774 14.516405135520683  L 10.513186029935852 10.082738944365191  L 1.4611546685673558 5.306704707560628  C 1.2948443810881445 5.2154065620542065  1.1938702779757662 5.078459343794577  1.1582323592302208 4.89586305278174  C 1.134473746733191 4.7132667617689  1.1879306248515087 4.5592011412268185  1.3186029935851746 4.433666191155492  L 3.599429793300071 2.2425106990014276  C 3.7657400807792825 2.094151212553493  3.9439296745070087 2.0485021398002825  4.13399857448325 2.1055634807417984  L 15.983606557377051 4.827389443651927  L 18.83464005702067 2.088445078459343  C 19.73746733190782 1.2211126961483574  20.759087669280113 0.6048502139800274  21.89950106913756 0.23965763195435041  Z " fill-rule="nonzero" fill="#ffffff" stroke="none" fill-opacity="0.996078431372549" transform="matrix(1 0 0 1 182 207 )" />
  </g>
</svg>