<?xml version="1.0" encoding="utf-8"?>
<svg version="1.1" xmlns:xlink="http://www.w3.org/1999/xlink" width="19px" height="18px" xmlns="http://www.w3.org/2000/svg">
  <g transform="matrix(1 0 0 1 -94 -725 )">
    <path d="M 18.360576923076923 6.453686200378073  C 18.786858974358974 6.521739130434783  19 6.695652173913043  19 6.975425330812855  C 19 7.141776937618147  18.901041666666668 7.323251417769375  18.703125 7.51984877126654  L 14.55829326923077 11.534971644612476  L 15.540264423076923 17.206049149338373  C 15.547876602564104 17.25897920604915  15.551682692307693 17.334593572778825  15.551682692307693 17.43289224952741  C 15.551682692307693 17.591682419659737  15.51171875 17.725897920604915  15.431790865384617 17.835538752362947  C 15.35186298076923 17.945179584120982  15.235777243589745 18  15.083533653846153 18  C 14.938902243589745 18  14.786658653846153 17.954631379962194  14.626802884615383 17.86389413988658  L 9.5 15.187145557655954  L 4.373197115384615 17.86389413988658  C 4.205729166666667 17.954631379962194  4.053485576923077 18  3.916466346153846 18  C 3.7566105769230766 18  3.63671875 17.945179584120982  3.556790865384615 17.835538752362947  C 3.476862980769231 17.725897920604915  3.4368990384615383 17.591682419659737  3.4368990384615383 17.43289224952741  C 3.4368990384615383 17.387523629489603  3.4445112179487185 17.311909262759922  3.4597355769230766 17.206049149338373  L 4.441706730769231 11.534971644612476  L 0.2854567307692308 7.51984877126654  C 0.09515224358974358 7.3156899810964084  0 7.134215500945181  0 6.975425330812855  C 0 6.695652173913043  0.2131410256410256 6.521739130434783  0.6394230769230769 6.453686200378073  L 6.37139423076923 5.625708884688089  L 8.940504807692308 0.46502835538752274  C 9.085136217948719 0.15500945179584025  9.271634615384615 0  9.5 0  C 9.728365384615383 0  9.914863782051283 0.15500945179584025  10.059495192307693 0.46502835538752274  L 12.62860576923077 5.625708884688089  L 18.360576923076923 6.453686200378073  Z " fill-rule="nonzero" fill="#893b12" stroke="none" transform="matrix(1 0 0 1 94 725 )" />
  </g>
</svg>