<?xml version="1.0" encoding="utf-8"?>
<svg version="1.1" xmlns:xlink="http://www.w3.org/1999/xlink" width="17px" height="15px" xmlns="http://www.w3.org/2000/svg">
  <g transform="matrix(1 0 0 1 -6 -211 )">
    <path d="M 10.42578125 9.19921875  C 11.321414262820515 8.408954326923077  11.769230769230768 7.457932692307692  11.769230769230768 6.346153846153847  C 11.769230769230768 5.234374999999999  11.321414262820515 4.283353365384615  10.42578125 3.493088942307692  C 9.530148237179487 2.7028245192307683  8.452323717948719 2.307692307692308  7.1923076923076925 2.307692307692308  C 5.932291666666667 2.307692307692308  4.854467147435899 2.7028245192307683  3.9588341346153846 3.493088942307692  C 3.063201121794872 4.283353365384615  2.6153846153846154 5.234374999999999  2.6153846153846154 6.346153846153847  C 2.6153846153846154 7.457932692307692  3.063201121794872 8.408954326923077  3.9588341346153846 9.19921875  C 4.854467147435899 9.98948317307692  5.932291666666667 10.384615384615385  7.1923076923076925 10.384615384615385  C 8.452323717948719 10.384615384615385  9.530148237179487 9.98948317307692  10.42578125 9.19921875  Z M 16.621995192307693 13.034855769230768  C 16.873998397435898 13.25721153846154  17 13.527644230769232  17 13.846153846153847  C 17 14.158653846153847  16.87059294871795 14.42908653846154  16.611778846153847 14.657451923076923  C 16.352964743589745 14.885817307692307  16.04647435897436 15  15.692307692307693 15  C 15.324519230769232 15  15.018028846153847 14.885817307692307  14.772836538461538 14.657451923076923  L 11.268629807692307 11.574519230769232  C 10.049479166666668 12.31971153846154  8.69070512820513 12.692307692307692  7.1923076923076925 12.692307692307692  C 6.2183493589743595 12.692307692307692  5.286959134615384 12.525540865384615  4.398137019230769 12.192007211538463  C 3.5093149038461537 11.858473557692308  2.743088942307692 11.407752403846153  2.0994591346153846 10.83984375  C 1.4558293269230769 10.271935096153847  0.9450120192307694 9.595853365384615  0.5670072115384616 8.811598557692308  C 0.18900240384615385 8.02734375  0 7.205528846153845  0 6.346153846153847  C 0 5.486778846153844  0.18900240384615385 4.6649639423076925  0.5670072115384616 3.880709134615384  C 0.9450120192307694 3.0964543269230766  1.4558293269230769 2.4203725961538467  2.0994591346153846 1.852463942307692  C 2.743088942307692 1.2845552884615392  3.5093149038461537 0.8338341346153844  4.398137019230769 0.5003004807692313  C 5.286959134615384 0.16676682692307654  6.2183493589743595 0  7.1923076923076925 0  C 8.166266025641026 0  9.09765625 0.16676682692307654  9.986478365384615 0.5003004807692313  C 10.875300480769232 0.8338341346153844  11.641526442307693 1.2845552884615392  12.28515625 1.852463942307692  C 12.928786057692307 2.4203725961538467  13.439603365384615 3.0964543269230766  13.817608173076922 3.880709134615384  C 14.195612980769232 4.6649639423076925  14.384615384615385 5.486778846153844  14.384615384615385 6.346153846153847  C 14.384615384615385 7.66826923076923  13.962339743589745 8.867187499999998  13.117788461538462 9.942908653846153  L 16.621995192307693 13.034855769230768  Z " fill-rule="nonzero" fill="#893b12" stroke="none" fill-opacity="0.592156862745098" transform="matrix(1 0 0 1 6 211 )" />
  </g>
</svg>