<?xml version="1.0" encoding="utf-8"?>
<svg version="1.1" xmlns:xlink="http://www.w3.org/1999/xlink" width="34px" height="23px" xmlns="http://www.w3.org/2000/svg">
  <g transform="matrix(1 0 0 1 -268 -293 )">
    <path d="M 16.3857421875 16.613606770833336  C 16.795247395833336 16.18934461805555  17 15.657769097222221  17 15.018880208333336  C 17 14.379991319444443  16.9501953125 13.793511284722221  16.8505859375 13.259440104166664  C 16.7509765625 12.725368923611109  16.587727864583336 12.211263020833336  16.36083984375 11.717122395833336  C 16.133951822916668 11.222981770833332  15.799153645833334 10.833658854166668  15.3564453125 10.549153645833332  C 14.91373697916667 10.2646484375  14.376953125000002 10.122395833333332  13.74609375 10.122395833333332  C 13.679687500000002 10.16232638888889  13.513671875000002 10.25217013888889  13.248046875 10.391927083333332  C 12.982421875000002 10.531684027777775  12.774902343750002 10.638997395833332  12.62548828125 10.7138671875  C 12.47607421875 10.788736979166668  12.279622395833334 10.876085069444443  12.0361328125 10.975911458333332  C 11.792643229166668 11.075737847222221  11.5546875 11.148111979166668  11.322265625 11.193033854166668  C 11.08984375 11.237955729166668  10.857421875 11.260416666666668  10.625 11.260416666666668  C 10.392578125 11.260416666666668  10.16015625 11.237955729166668  9.927734375 11.193033854166668  C 9.6953125 11.148111979166668  9.457356770833334 11.075737847222221  9.2138671875 10.975911458333332  C 8.970377604166668 10.876085069444443  8.77392578125 10.788736979166668  8.62451171875 10.7138671875  C 8.47509765625 10.638997395833332  8.267578125 10.531684027777775  8.001953125 10.391927083333332  C 7.736328125 10.25217013888889  7.5703125 10.16232638888889  7.50390625 10.122395833333332  C 6.873046875 10.122395833333332  6.336263020833334 10.2646484375  5.8935546875 10.549153645833332  C 5.450846354166667 10.833658854166668  5.116048177083334 11.222981770833332  4.88916015625 11.717122395833336  C 4.662272135416667 12.211263020833336  4.4990234375 12.725368923611109  4.3994140625 13.259440104166664  C 4.2998046875 13.793511284722221  4.25 14.379991319444443  4.25 15.018880208333336  C 4.25 15.657769097222221  4.454752604166667 16.18934461805555  4.8642578125 16.613606770833336  C 5.273763020833334 17.037868923611107  5.77734375 17.25  6.375 17.25  L 14.875 17.25  C 15.47265625 17.25  15.976236979166668 17.037868923611107  16.3857421875 16.613606770833336  Z M 13.28955078125 9.6357421875  C 14.02555338541667 8.971896701388886  14.393554687500002 8.170789930555554  14.3935546875 7.232421875  C 14.393554687500002 6.294053819444443  14.02555338541667 5.492947048611111  13.28955078125 4.8291015625  C 12.553548177083334 4.165256076388887  11.665364583333334 3.8333333333333326  10.625 3.8333333333333326  C 9.584635416666668 3.8333333333333326  8.696451822916668 4.165256076388887  7.96044921875 4.8291015625  C 7.224446614583334 5.492947048611111  6.8564453125 6.294053819444443  6.8564453125 7.232421875  C 6.8564453125 8.170789930555554  7.224446614583334 8.971896701388886  7.96044921875 9.6357421875  C 8.696451822916668 10.29958767361111  9.584635416666668 10.631510416666668  10.625 10.631510416666668  C 11.665364583333334 10.631510416666668  12.553548177083334 10.29958767361111  13.28955078125 9.6357421875  Z M 29.6005859375 15.198567708333336  C 29.7001953125 15.108723958333336  29.75 14.993923611111109  29.75 14.854166666666664  L 29.75 13.895833333333336  C 29.75 13.756076388888886  29.7001953125 13.641276041666664  29.6005859375 13.551432291666664  C 29.5009765625 13.461588541666664  29.373697916666668 13.416666666666664  29.21875 13.416666666666664  L 19.65625 13.416666666666664  C 19.501302083333336 13.416666666666664  19.3740234375 13.461588541666664  19.2744140625 13.551432291666664  C 19.1748046875 13.641276041666664  19.125 13.756076388888886  19.125 13.895833333333336  L 19.125 14.854166666666664  C 19.125 14.993923611111109  19.1748046875 15.108723958333336  19.2744140625 15.198567708333336  C 19.3740234375 15.288411458333336  19.501302083333336 15.333333333333336  19.65625 15.333333333333336  L 29.21875 15.333333333333336  C 29.373697916666668 15.333333333333336  29.5009765625 15.288411458333336  29.6005859375 15.198567708333336  Z M 29.57568359375 11.3427734375  C 29.69189453125 11.237955729166668  29.75 11.110677083333332  29.75 10.9609375  L 29.75 10.122395833333332  C 29.75 9.97265625  29.69189453125 9.845377604166668  29.57568359375 9.740559895833332  C 29.45947265625 9.6357421875  29.318359375 9.583333333333332  29.15234375 9.583333333333332  L 19.72265625 9.583333333333332  C 19.556640625 9.583333333333332  19.41552734375 9.6357421875  19.29931640625 9.740559895833332  C 19.18310546875 9.845377604166668  19.125 9.97265625  19.125 10.122395833333332  L 19.125 10.9609375  C 19.125 11.110677083333332  19.18310546875 11.237955729166668  19.29931640625 11.3427734375  C 19.41552734375 11.447591145833332  19.556640625 11.5  19.72265625 11.5  L 29.15234375 11.5  C 29.318359375 11.5  29.45947265625 11.447591145833332  29.57568359375 11.3427734375  Z M 29.6005859375 7.531901041666668  C 29.7001953125 7.442057291666668  29.75 7.327256944444443  29.75 7.1875  L 29.75 6.229166666666668  C 29.75 6.089409722222219  29.7001953125 5.974609375  29.6005859375 5.884765625  C 29.5009765625 5.794921875  29.373697916666668 5.75  29.21875 5.75  L 19.65625 5.75  C 19.501302083333336 5.75  19.3740234375 5.794921875  19.2744140625 5.884765625  C 19.1748046875 5.974609375  19.125 6.089409722222219  19.125 6.229166666666668  L 19.125 7.1875  C 19.125 7.327256944444443  19.1748046875 7.442057291666668  19.2744140625 7.531901041666668  C 19.3740234375 7.621744791666668  19.501302083333336 7.666666666666668  19.65625 7.666666666666668  L 29.21875 7.666666666666668  C 29.373697916666668 7.666666666666668  29.5009765625 7.621744791666668  29.6005859375 7.531901041666668  Z M 33.2197265625 0.7037760416666675  C 33.73990885416667 1.1729600694444433  34 1.7369791666666674  34 2.3958333333333326  L 34 20.604166666666668  C 34 21.263020833333332  33.73990885416667 21.827039930555557  33.2197265625 22.296223958333332  C 32.699544270833336 22.76540798611111  32.07421875 23  31.34375 23  L 25.5 23  L 25.5 21.5625  C 25.5 21.422743055555557  25.4501953125 21.307942708333332  25.3505859375 21.218098958333332  C 25.2509765625 21.128255208333332  25.123697916666668 21.083333333333332  24.96875 21.083333333333332  L 23.90625 21.083333333333332  C 23.751302083333336 21.083333333333332  23.6240234375 21.128255208333332  23.5244140625 21.218098958333332  C 23.4248046875 21.307942708333332  23.375 21.422743055555557  23.375 21.5625  L 23.375 23  L 10.625 23  L 10.625 21.5625  C 10.625 21.422743055555557  10.5751953125 21.307942708333332  10.4755859375 21.218098958333332  C 10.3759765625 21.128255208333332  10.248697916666668 21.083333333333332  10.09375 21.083333333333332  L 9.03125 21.083333333333332  C 8.876302083333334 21.083333333333332  8.7490234375 21.128255208333332  8.6494140625 21.218098958333332  C 8.5498046875 21.307942708333332  8.5 21.422743055555557  8.5 21.5625  L 8.5 23  L 2.65625 23  C 1.92578125 23  1.3004557291666667 22.76540798611111  0.7802734375 22.296223958333332  C 0.2600911458333333 21.827039930555557  0 21.263020833333332  0 20.604166666666668  L 0 2.3958333333333326  C 0 1.7369791666666674  0.2600911458333333 1.1729600694444433  0.7802734375 0.7037760416666675  C 1.3004557291666667 0.23459201388888662  1.92578125 0  2.65625 0  L 31.34375 0  C 32.07421875 0  32.699544270833336 0.23459201388888662  33.2197265625 0.7037760416666675  Z " fill-rule="nonzero" fill="#893b12" stroke="none" transform="matrix(1 0 0 1 268 293 )" />
  </g>
</svg>