<?xml version="1.0" encoding="utf-8"?>
<svg version="1.1" xmlns:xlink="http://www.w3.org/1999/xlink" width="37px" height="40px" xmlns="http://www.w3.org/2000/svg">
  <g transform="matrix(1 0 0 1 -171 -442 )">
    <path d="M 3.353125 0  L 33.646875 0  C 34.09010416666667 0  34.5140625 0.0793126239259756  34.918749999999996 0.2379378717779268  C 35.5546875 0.4670632297862909  36.060546875 0.828376294337958  36.436328124999996 1.3218770654329148  C 36.812109375 1.8153778365278672  37 2.361753690240138  37 2.9610046265697276  L 37 37.038995373430275  C 37 37.638246309759865  36.812109375 38.18462216347213  36.436328124999996 38.678122934567085  C 36.060546875 39.17162370566204  35.5546875 39.5329367702137  34.918749999999996 39.76206212822207  C 34.55260416666667 39.90306234853492  34.12864583333334 39.97356245869134  33.646875 39.97356245869134  C 32.721875000000004 39.97356245869134  31.922135416666674 39.69156201806565  31.24765625 39.12756113681428  L 18.5 27.91804362194316  L 5.75234375 39.12756113681428  C 5.05859375 39.70918704560476  4.258854166666667 40  3.353125 40  C 2.909895833333333 40  2.4859375 39.92068737607403  2.0812500000000003 39.76206212822207  C 1.4453125 39.5329367702137  0.939453125 39.17162370566204  0.5636718749999999 38.678122934567085  C 0.187890625 38.18462216347213  0 37.638246309759865  0 37.038995373430275  L 0 2.9610046265697276  C 0 2.361753690240138  0.187890625 1.8153778365278672  0.5636718749999999 1.3218770654329148  C 0.939453125 0.828376294337958  1.4453125 0.4670632297862909  2.0812500000000003 0.2379378717779268  C 2.4859375 0.0793126239259756  2.909895833333333 0  3.353125 0  Z " fill-rule="nonzero" fill="#978061" stroke="none" fill-opacity="0.996078431372549" transform="matrix(1 0 0 1 171 442 )" />
  </g>
</svg>