<?xml version="1.0" encoding="utf-8"?>
<svg version="1.1" xmlns:xlink="http://www.w3.org/1999/xlink" width="29px" height="25px" xmlns="http://www.w3.org/2000/svg">
  <g transform="matrix(1 0 0 1 -231 -915 )">
    <path d="M 28.024038461538463 8.963453056080656  C 28.67467948717949 9.057971014492756  29 9.29951690821256  29 9.688090737240076  C 29 9.91913463558076  28.848958333333336 10.171182524679686  28.546875 10.444234404536862  L 22.220552884615387 16.020793950850663  L 23.719350961538463 23.897290485192187  C 23.730969551282055 23.970804452846043  23.736778846153847 24.07582440663726  23.736778846153847 24.21235034656585  C 23.736778846153847 24.43289224952741  23.67578125 24.619302667506826  23.55378605769231 24.771581600504096  C 23.431790865384613 24.923860533501365  23.254607371794872 25  23.022235576923077 25  C 22.801482371794872 25  22.569110576923077 24.936988027725267  22.32512019230769 24.810964083175804  L 14.5 21.093257718966605  L 6.6748798076923075 24.810964083175804  C 6.419270833333334 24.936988027725267  6.186899038461538 25  5.9777644230769225 25  C 5.733774038461538 25  5.55078125 24.923860533501365  5.4287860576923075 24.771581600504096  C 5.306790865384616 24.619302667506826  5.245793269230769 24.43289224952741  5.245793269230769 24.21235034656585  C 5.245793269230769 24.149338374291116  5.2574118589743595 24.044318420499895  5.280649038461538 23.897290485192187  L 6.779447115384616 16.020793950850663  L 0.4356971153846154 10.444234404536862  C 0.14523237179487178 10.160680529300567  0 9.90863264020164  0 9.688090737240076  C 0 9.29951690821256  0.3253205128205128 9.057971014492756  0.9759615384615384 8.963453056080656  L 9.724759615384615 7.813484562066791  L 13.646033653846155 0.6458727158160038  C 13.866786858974361 0.21529090527200034  14.151442307692307 0  14.5 0  C 14.848557692307692 0  15.13321314102564 0.21529090527200034  15.353966346153847 0.6458727158160038  L 19.275240384615387 7.813484562066791  L 28.024038461538463 8.963453056080656  Z " fill-rule="nonzero" fill="#893b12" stroke="none" transform="matrix(1 0 0 1 231 915 )" />
  </g>
</svg>